# xmcd
#
# Track frame offsets:
#	150
#	2665
#	19980
#	36340
#	50485
#	64360
#
# Disc length: 1054 seconds
#
# Revision: 1
# Processed by: cddbd v1.4PL0 Copyright (c) Steve Scherf et al.
# Submitted via: audiograbber 1.81.03
#
DISCID=4d041c06
DTITLE=Hank Williams Jr and III - A Family Tradition
DYEAR=2002
DGENRE=Country
TTITLE0=Intro - Intro
TTITLE1=Hank Williams Jr - Tee Tot Song
TTITLE2=Hank Williams Jr - Go Girl Go
TTITLE3=Hank Williams III - Mississippi Mud
TTITLE4=Hank Williams III - Nighttime Ramblin Man
TTITLE5=Jenai - Cool Me Down
EXTD=
EXTT0=
EXTT1=
EXTT2=
EXTT3=
EXTT4=
EXTT5=
PLAYORDER=
